# xmcd
#
# Track frame offsets:
#	150
#	28342
#	61013
#	92077
#	135181
#	172115
#	202137
#	227676
#	253110
#	302571
#
# Disc length: 4680 seconds
#
# Revision: 1
# Processed by: cddbd v1.5.2PL0 Copyright (c) Steve Scherf et al.
# Submitted via: audiograbber 1.83.01
#
DISCID=8412460a
DTITLE=Grateful Dead - 79-12-31 Oakland Auditorium Arena, Oakland CA
DYEAR=1900
DGENRE=
TTITLE0=Sugar Magnolia
TTITLE1=China Cat Sunflower
TTITLE2=I Know You Rider
TTITLE3=Samson and Delilah
TTITLE4=Ship Of Fools
TTITLE5=Lost Sailor
TTITLE6=Saint Of Circumstance
TTITLE7=Deal
TTITLE8=Althea
TTITLE9=Minglewood Blues
EXTD=
EXTT0=
EXTT1=
EXTT2=
EXTT3=
EXTT4=
EXTT5=
EXTT6=
EXTT7=
EXTT8=
EXTT9=
PLAYORDER=
